<svg width="100" height="43" viewBox="0 0 100 43" fill="none" xmlns="http://www.w3.org/2000/svg">
<path d="M15.6227 41.829L1.28791 33.7195C-0.431334 32.7469 -0.428784 30.2694 1.29246 29.3003L15.6273 21.2297C16.4042 20.7923 17.3537 20.7948 18.1284 21.2363L32.2883 29.3069C33.9941 30.2791 33.9966 32.7372 32.2929 33.7129L18.1329 41.8224C17.3559 42.2673 16.402 42.2698 15.6227 41.829Z" fill="url(#paint0_linear_26_10)" fill-opacity="0.95"/>
<path d="M16.2492 30.7382L0.643026 21.8739C-0.211152 21.3887 -0.213514 20.1586 0.638794 19.6701L16.2449 10.7264C16.6378 10.5012 17.1208 10.5025 17.5124 10.7298L32.9256 19.6735C33.7701 20.1635 33.7677 21.3838 32.9214 21.8705L17.5082 30.7348C17.1187 30.9588 16.6399 30.9601 16.2492 30.7382Z" fill="url(#paint1_linear_26_10)" fill-opacity="0.95"/>
<path d="M16.2492 20.1797L0.643026 11.3154C-0.211152 10.8302 -0.213514 9.60013 0.638794 9.11168L16.2449 0.167935C16.6378 -0.0571912 17.1208 -0.0558908 17.5124 0.171347L32.9256 9.1151C33.7701 9.60509 33.7677 10.8253 32.9214 11.3121L17.5082 20.1764C17.1187 20.4003 16.6399 20.4016 16.2492 20.1797Z" fill="url(#paint2_linear_26_10)" fill-opacity="0.9"/>
<path d="M52.1461 27.8667C50.3701 27.8667 48.9826 27.3275 47.9835 26.2492C47.0004 25.155 46.5088 23.6565 46.5088 21.7536C46.5088 19.8507 47.0004 18.3601 47.9835 17.2818C48.9826 16.2035 50.3701 15.6643 52.1461 15.6643C53.3196 15.6643 54.3265 15.9101 55.167 16.4017C56.0233 16.8933 56.6734 17.591 57.1174 18.4949C57.5614 19.3829 57.7835 20.4454 57.7835 21.6823C57.7835 21.825 57.7755 21.9677 57.7597 22.1104C57.7597 22.2373 57.7517 22.3721 57.7359 22.5148H48.6258V20.374H55.8568L54.7388 21.6347C54.7705 20.3978 54.5565 19.5018 54.0966 18.9468C53.6526 18.3918 53.0104 18.1143 52.1699 18.1143C51.3136 18.1143 50.6634 18.3998 50.2194 18.9706C49.7754 19.5256 49.5693 20.4533 49.601 21.7536C49.601 22.9746 49.8071 23.8706 50.2194 24.4415C50.6476 25.0123 51.2898 25.2978 52.1461 25.2978C52.7646 25.2978 53.2641 25.1709 53.6447 24.9172C54.0252 24.6635 54.279 24.2829 54.4058 23.7754H57.5932C57.4029 25.044 56.832 26.0431 55.8806 26.7725C54.945 27.5019 53.7002 27.8667 52.1461 27.8667Z" fill="#020617"/>
<path d="M59.8605 27.5812V11.6445H62.9765V27.5812H59.8605Z" fill="#020617"/>
<path d="M71.0307 27.8429C69.7938 27.8429 68.7314 27.5892 67.8433 27.0817C66.9553 26.5743 66.2814 25.8686 65.8215 24.9647C65.3617 24.045 65.1317 22.9746 65.1317 21.7536C65.1317 20.5326 65.3617 19.4701 65.8215 18.5663C66.2814 17.6465 66.9553 16.9329 67.8433 16.4255C68.7314 15.9181 69.7938 15.6643 71.0307 15.6643C72.2834 15.6643 73.3538 15.9181 74.2418 16.4255C75.1299 16.9329 75.8038 17.6465 76.2637 18.5663C76.7235 19.4701 76.9535 20.5326 76.9535 21.7536C76.9535 22.9746 76.7235 24.045 76.2637 24.9647C75.8197 25.8686 75.1457 26.5743 74.2418 27.0817C73.3538 27.5892 72.2834 27.8429 71.0307 27.8429ZM71.0307 25.2026C71.6016 25.2026 72.0932 25.0837 72.5054 24.8458C72.9177 24.5921 73.2349 24.2115 73.4569 23.7041C73.6789 23.1808 73.7899 22.5306 73.7899 21.7536C73.7899 20.9766 73.6789 20.3344 73.4569 19.8269C73.2349 19.3036 72.9177 18.923 72.5054 18.6852C72.0932 18.4315 71.6016 18.3046 71.0307 18.3046C70.4598 18.3046 69.9683 18.4315 69.556 18.6852C69.1595 18.923 68.8503 19.3036 68.6283 19.8269C68.4221 20.3344 68.3191 20.9766 68.3191 21.7536C68.3191 22.5306 68.4221 23.1808 68.6283 23.7041C68.8503 24.2115 69.1595 24.5921 69.556 24.8458C69.9683 25.0837 70.4598 25.2026 71.0307 25.2026Z" fill="#020617"/>
<path d="M81.1696 27.5812L77.7919 15.9498H81.0744L83.3817 24.5842H83.7147L86.0457 15.9498H89.3045L85.9268 27.5812H81.1696Z" fill="#020617"/>
<path d="M93.8157 27.8667C92.5154 27.8667 91.4846 27.5337 90.7235 26.8676C89.9623 26.2016 89.5817 25.2581 89.5817 24.0371C89.5817 23.2759 89.7561 22.602 90.105 22.0153C90.4539 21.4285 90.9455 20.9766 91.5798 20.6594C92.2299 20.3423 92.9831 20.1837 93.8394 20.1837C94.553 20.1837 95.1635 20.2709 95.671 20.4454C96.1943 20.6039 96.5986 20.818 96.8841 21.0876L96.5035 22.2055V21.0162H96.67V19.5177C96.67 19.1213 96.5273 18.7962 96.2419 18.5425C95.9564 18.2729 95.5521 18.1381 95.0288 18.1381C94.4737 18.1381 94.0694 18.2412 93.8157 18.4473C93.5778 18.6376 93.4589 18.8834 93.4589 19.1847V19.2798H90.4618V19.1371C90.4618 18.0271 90.8582 17.1708 91.6511 16.5682C92.444 15.9656 93.5857 15.6643 95.0763 15.6643C96.5828 15.6643 97.7483 16.0211 98.5729 16.7347C99.3975 17.4324 99.8098 18.3601 99.8098 19.5177V25.7735C99.8098 26.4078 99.8732 27.0104 100 27.5812H97.2884C97.1774 27.2007 97.1219 26.717 97.1219 26.1303V25.8448L98.5967 26.4157H97.1695C96.8524 26.8756 96.4163 27.2324 95.8613 27.4861C95.3221 27.7398 94.6403 27.8667 93.8157 27.8667ZM94.6958 25.5594C95.3459 25.5594 95.8375 25.4167 96.1705 25.1313C96.5194 24.8458 96.6938 24.4494 96.6938 23.9419C96.6938 23.4345 96.5194 23.0381 96.1705 22.7526C95.8375 22.4672 95.3459 22.3245 94.6958 22.3245C94.0456 22.3245 93.5461 22.4672 93.1972 22.7526C92.8642 23.0381 92.6977 23.4345 92.6977 23.9419C92.6977 24.4494 92.8642 24.8458 93.1972 25.1313C93.5461 25.4167 94.0456 25.5594 94.6958 25.5594Z" fill="#020617"/>
<defs>
<linearGradient id="paint0_linear_26_10" x1="0" y1="21.1042" x2="33.5691" y2="21.1042" gradientUnits="userSpaceOnUse">
<stop stop-color="#3C0E8B"/>
<stop offset="1" stop-color="#6B01F3"/>
</linearGradient>
<linearGradient id="paint1_linear_26_10" x1="1.16687" y1="21.0924" x2="32.8445" y2="21.0924" gradientUnits="userSpaceOnUse">
<stop stop-color="#502ADD"/>
<stop offset="1" stop-color="#795CF6"/>
</linearGradient>
<linearGradient id="paint2_linear_26_10" x1="0.242534" y1="10.1644" x2="33.7547" y2="11.5651" gradientUnits="userSpaceOnUse">
<stop stop-color="#B18CF6"/>
<stop offset="1" stop-color="#CBC0F9"/>
</linearGradient>
</defs>
</svg>
